<?xml version="1.0" standalone="no"?>
<!DOCTYPE svg PUBLIC "-//W3C//DTD SVG 20010904//EN"
 "http://www.w3.org/TR/2001/REC-SVG-20010904/DTD/svg10.dtd">
<svg version="1.0" xmlns="http://www.w3.org/2000/svg"
 width="400.000000pt" height="400.000000pt" viewBox="0 0 400.000000 400.000000"
 preserveAspectRatio="xMidYMid meet">
<metadata>
Created by potrace 1.13, written by Peter Selinger 2001-2015
</metadata>
<g transform="translate(0.000000,400.000000) scale(0.100000,-0.100000)"
fill="#9c1945" stroke="none">
<path d="M0 2000 l0 -2000 2000 0 2000 0 0 2000 0 2000 -2000 0 -2000 0 0
-2000z m3900 0 l0 -1900 -1900 0 -1900 0 0 1900 0 1900 1900 0 1900 0 0 -1900z"/>
<path d="M170 2000 l0 -1830 1830 2 1830 3 0 1825 0 1825 -1830 3 -1830 2 0
-1830z m3610 0 l0 -1780 -1780 0 -1780 0 0 1780 0 1780 1780 0 1780 0 0 -1780z"/>
<path d="M372 3033 l3 -598 131 -3 131 -3 -5 125 c-10 254 50 464 193 681 94
141 233 276 370 359 l60 36 -443 0 -442 0 2 -597z"/>
<path d="M2430 3489 c0 -109 -3 -140 -12 -136 -7 3 -58 26 -113 51 -462 208
-947 95 -1178 -275 -231 -371 -158 -906 159 -1164 237 -192 598 -234 915 -105
110 44 105 33 91 217 -6 87 -20 193 -30 236 l-19 77 201 2 c353 2 436 -6 574
-58 265 -100 431 -351 395 -600 -26 -182 -145 -335 -359 -460 -17 -10 -16 -14
15 -70 91 -160 355 -520 528 -717 l33 -37 0 1590 0 1590 -600 0 -600 0 0 -141z"/>
<path d="M676 2225 c-15 -40 -26 -400 -29 -998 l-4 -649 66 7 c242 24 466 74
664 149 37 14 67 24 67 22 0 -2 -36 -85 -80 -185 -44 -100 -80 -186 -80 -192
0 -5 75 -9 184 -9 158 0 185 2 190 16 3 9 6 264 6 568 l0 553 -76 7 c-165 15
-385 94 -507 183 -162 117 -287 279 -362 468 -32 82 -31 80 -39 60z"/>
<path d="M2600 1770 c0 -242 4 -440 8 -440 26 0 220 74 274 104 79 44 160 126
189 191 31 70 38 194 14 266 -38 114 -111 197 -223 253 -58 30 -188 66 -234
66 l-28 0 0 -440z"/>
<path d="M2258 1585 c-10 -11 -144 -45 -233 -61 -49 -8 -93 -21 -97 -27 -9
-14 -11 -1051 -2 -1096 l7 -31 157 0 157 0 17 98 c28 163 36 320 36 730 0 373
-1 392 -18 392 -10 0 -21 -2 -24 -5z"/>
<path d="M2600 1018 c0 -286 11 -451 38 -568 l18 -75 369 -3 369 -2 -110 104
c-174 165 -324 341 -613 724 -34 45 -64 82 -66 82 -3 0 -5 -118 -5 -262z"/>
</g>
</svg>
